# xmcd
#
# Track frame offsets: 
#        150
#        20093
#        29299
#        45964
#        56828
#        75292
#        93012
#        106818
#        131919
#        147223
#        161812
#        175548
#
# Disc length: 2405 seconds
#
# Revision: 0
# Processed by: cddbd v1.5.2PL0 Copyright (c) Steve Scherf et al.
# Submitted via: ExactAudioCopyFreeDBPlugin 1.0
#
DISCID=8e09630c
DTITLE=L. C. Ulmer - Blues Come Yonder
DYEAR=2011
DGENRE=Blues
TTITLE0=Left Me Standing Behind
TTITLE1=Hard To Get Along
TTITLE2=Peaches Falling
TTITLE3=Trouble No More
TTITLE4=Ham and Peas
TTITLE5=There Go All My Dough
TTITLE6=Hip-Shake
TTITLE7=Roundin Up Girls All Day
TTITLE8=Get Along Cindy
TTITLE9=Blues Come Yonder
TTITLE10=I Saw The Light
TTITLE11=Bonus Track
EXTD=
EXTT0=
EXTT1=
EXTT2=
EXTT3=
EXTT4=
EXTT5=
EXTT6=
EXTT7=
EXTT8=
EXTT9=
EXTT10=
EXTT11=
PLAYORDER=
